<!-- Generated by IcoMoon.io -->
<svg version="1.1" xmlns="http://www.w3.org/2000/svg" width="28" height="28" viewBox="0 0 28 28">
<title>facebook</title>
<path fill="#65e2d9" d="M14-0.030c-7.736 0-14.031 6.293-14.031 14.030s6.295 14.030 14.031 14.030 14.031-6.293 14.031-14.030-6.295-14.030-14.031-14.030zM14 27.095c-7.221 0-13.094-5.875-13.094-13.095s5.874-13.095 13.094-13.095 13.094 5.875 13.094 13.095-5.874 13.095-13.094 13.095zM17.063 6.125h-2.334c-2.973-0.030-3.353 1.81-3.353 3.802v1.448h-1.313c-0.258-0.030-0.468 0.179-0.438 0.438v2.625c-0.031 0.258 0.179 0.467 0.438 0.438h1.313v6.563c-0.027 0.258 0.182 0.467 0.44 0.438h2.673c0.258 0.030 0.467-0.179 0.385-0.438l0.002-6.563h2.188c0.258 0.030 0.468-0.179 0.438-0.438v-2.625c0.031-0.258-0.179-0.467-0.438-0.438h-2.19l0.003-1.313c0.085-0.559 0.085-0.468 0.604-0.438h1.565c0.122-0.027 0.251-0.012 0.342-0.101s0.144-0.209 0.113-0.337v-2.625c0.032-0.258-0.179-0.467-0.437-0.438zM16.594 8.701l-1.097-0.042c-1.359 0-1.473 0.738-1.473 1.493l-0.004 1.659c0 0.124 0.049 0.243 0.136 0.332s0.207 0.136 0.331 0.136h2.137v1.691h-2.135c-0.258 0-0.467 0.209-0.468 0.467l-0.001 6.563h-1.771v-6.563c0-0.258-0.176-0.467-0.435-0.467h-1.315v-1.691h1.315c0.124 0 0.243-0.049 0.331-0.136s0.103-0.207 0.103-0.332v-1.886c0-1.962 0.396-2.896 2.478-2.896h1.866v1.671z"></path>
</svg>
