<!-- Generated by IcoMoon.io -->
<svg version="1.1" xmlns="http://www.w3.org/2000/svg" width="28" height="28" viewBox="0 0 28 28">
<title>twitter</title>
<path fill="#fff" d="M14-0.030c-7.736 0-14.031 6.293-14.031 14.030s6.295 14.030 14.031 14.030 14.031-6.293 14.031-14.030-6.295-14.030-14.031-14.030zM14 27.095c-7.221 0-13.094-5.875-13.094-13.095s5.874-13.095 13.094-13.095 13.094 5.875 13.094 13.095-5.874 13.095-13.094 13.095zM21.695 9.665c0.096-0.179 0.177-0.367 0.239-0.563 0.059-0.186-0.002-0.387-0.154-0.508s-0.363-0.135-0.529-0.037c-0.449 0.267-0.932 0.464-1.44 0.589-0.611-0.552-1.413-0.864-2.242-0.864-1.842 0-3.34 1.498-3.34 3.338 0 0.046 0.001 0.092 0.003 0.138-1.956-0.244-3.761-1.238-5.018-2.781-0.096-0.119-0.245-0.181-0.399-0.171-0.153 0.012-0.29 0.098-0.367 0.232-0.296 0.508-0.452 1.088-0.452 1.679 0 0.56 0.139 1.099 0.395 1.577-0.065 0.011-0.129 0.034-0.187 0.068-0.143 0.085-0.231 0.255-0.231 0.421 0 0.993 0.442 1.905 1.154 2.524-0.011 0.010-0.020 0.020-0.031 0.031-0.109 0.124-0.145 0.296-0.095 0.453 0.307 0.957 1.018 1.703 1.911 2.069-0.911 0.451-1.969 0.627-2.98 0.507-0.213-0.019-0.421 0.101-0.495 0.308-0.073 0.205 0.004 0.433 0.188 0.551 1.393 0.892 3.002 1.364 4.654 1.364 5.407 0 8.64-4.393 8.64-8.639 0-0.048 0-0.095-0.001-0.143 0.522-0.408 0.976-0.895 1.348-1.453 0.116-0.172 0.103-0.402-0.031-0.561-0.132-0.157-0.35-0.211-0.539-0.131zM20.168 11.201c-0.129 0.093-0.202 0.244-0.194 0.403 0.005 0.115 0.008 0.233 0.008 0.348 0 3.787-2.881 7.704-7.703 7.704-0.865 0-1.719-0.145-2.526-0.427 0.967-0.185 1.873-0.597 2.664-1.216 0.156-0.123 0.218-0.329 0.155-0.517s-0.237-0.315-0.435-0.319c-0.78-0.016-1.487-0.403-1.92-1.017 0.221-0.015 0.438-0.052 0.649-0.108 0.209-0.057 0.351-0.25 0.344-0.467s-0.163-0.4-0.375-0.443c-0.878-0.176-1.566-0.825-1.821-1.667 0.233 0.059 0.472 0.093 0.71 0.101 0.206-0.001 0.396-0.127 0.46-0.325s-0.011-0.416-0.185-0.531c-0.669-0.448-1.069-1.195-1.069-2.001 0-0.195 0.024-0.388 0.069-0.576 1.515 1.553 3.57 2.491 5.747 2.601 0.154 0.001 0.289-0.054 0.382-0.167s0.13-0.263 0.096-0.406c-0.041-0.178-0.062-0.362-0.062-0.549 0-1.326 1.079-2.404 2.405-2.404 0.662 0 1.302 0.277 1.754 0.76 0.11 0.118 0.273 0.17 0.432 0.139 0.144-0.029 0.287-0.062 0.428-0.101-0.063 0.047-0.129 0.091-0.198 0.132-0.189 0.113-0.273 0.344-0.202 0.552s0.284 0.345 0.498 0.312c0.053-0.006 0.106-0.013 0.159-0.020-0.087 0.072-0.178 0.141-0.27 0.207z"></path>
</svg>
